<svg width="80" height="80" viewBox="0 0 80 80" fill="none" xmlns="http://www.w3.org/2000/svg">
<path d="M5.88745 5.88745C-1.96248 13.7374 -1.96248 26.4646 5.88745 34.3146L11.5729 40L5.88745 45.6854C-1.96248 53.5354 -1.96248 66.2626 5.88745 74.1125C13.7374 81.9625 26.4646 81.9625 34.3146 74.1125L40 68.4271L45.6854 74.1125C53.5354 81.9625 66.2626 81.9625 74.1125 74.1125C81.9625 66.2626 81.9625 53.5354 74.1125 45.6854L68.4271 40L74.1125 34.3146C81.9625 26.4646 81.9625 13.7374 74.1125 5.88745C66.2626 -1.96248 53.5354 -1.96248 45.6854 5.88745L40 11.5729L34.3146 5.88745C26.4646 -1.96248 13.7374 -1.96248 5.88745 5.88745Z" fill="#F7F7F5"/>
</svg>
