<svg width="80" height="80" viewBox="0 0 80 80" fill="none" xmlns="http://www.w3.org/2000/svg">
<path d="M0 6.4C0 4.15979 0 3.03968 0.435974 2.18404C0.819467 1.43139 1.43139 0.819467 2.18404 0.435974C3.03968 0 4.15979 0 6.4 0H73.6C75.8402 0 76.9603 0 77.816 0.435974C78.5686 0.819467 79.1805 1.43139 79.564 2.18404C80 3.03968 80 4.15979 80 6.4V73.6C80 75.8402 80 76.9603 79.564 77.816C79.1805 78.5686 78.5686 79.1805 77.816 79.564C76.9603 80 75.8402 80 73.6 80H6.4C4.15979 80 3.03968 80 2.18404 79.564C1.43139 79.1805 0.819467 78.5686 0.435974 77.816C0 76.9603 0 75.8402 0 73.6V6.4Z" fill="#F7F7F5"/>
</svg>
