<svg width="24" height="24" viewBox="0 0 24 24" fill="none" xmlns="http://www.w3.org/2000/svg">
<path d="M16.5143 3.28111C16.9218 3.17046 17.3394 3.08287 17.7509 2.98737L21.2121 2.17361C21.4611 2.11356 21.7278 2.02705 21.9824 2.00254L21.9996 2C22.0092 2.05436 21.8311 2.74981 21.8001 2.8823L20.8165 7.03434C20.6856 7.59637 20.7999 7.54773 20.303 7.05481C19.9702 6.7247 19.6436 6.38557 19.2996 6.06705C19.139 6.23795 18.9699 6.39969 18.8054 6.5667L16.8498 8.51842C17.0024 8.72825 17.1759 8.92344 17.3298 9.1328C19.1222 11.571 20.0114 15.2445 19.0109 18.1738L20.2682 19.4297C20.4488 19.6091 20.6638 19.7821 20.8198 19.9819C20.6665 20.1598 20.4831 20.3225 20.3157 20.4883L19.4344 21.3674C19.2001 21.123 18.9546 20.8875 18.7148 20.6485L12.6127 14.5711C12.309 14.2734 11.9669 13.9754 11.6865 13.6582C11.5106 13.8167 11.3505 13.9932 11.1841 14.1614L10.3463 15.0076C9.99475 15.3677 9.62457 15.7086 9.28076 16.0764C9.34508 16.7386 9.44797 17.5584 9.5625 18.2183L6.23389 21.5625C6.10022 21.6961 5.91354 21.8383 5.81632 22C5.7405 21.7727 5.68875 21.5353 5.63236 21.3025L5.39843 20.3446C5.35142 20.153 5.31796 19.934 5.24205 19.7531L6.65966 18.3403C6.88032 18.1217 7.0898 17.8768 7.33162 17.6821C7.37488 17.6249 7.42437 17.5742 7.47378 17.5224C7.42128 17.2396 7.4012 16.874 7.33162 16.6136C7.0222 16.5484 6.70184 16.5047 6.3882 16.4662C5.7002 17.0166 4.84743 17.9924 4.18911 18.6306C3.50357 18.404 2.70697 18.2444 2 18.0494C2.28514 17.7744 2.55917 17.4873 2.83962 17.2075L5.6934 14.3514L6.905 14.5484C7.21123 14.5962 7.52126 14.6358 7.82491 14.6979C8.53125 14.0393 9.18509 13.3217 9.87192 12.6429C10.0034 12.5129 10.1311 12.3756 10.2791 12.2641C10.1006 12.014 9.84564 11.8027 9.62724 11.5861L3.96546 5.94537C3.69594 5.67652 3.43164 5.39628 3.15057 5.13972C3.57152 4.69087 4.14763 4.24707 4.52262 3.78512C4.95811 4.25071 5.42419 4.69172 5.87825 5.13972C8.93826 4.32474 11.9285 4.67451 14.6084 6.48427C14.8983 6.68002 15.1913 6.88223 15.4523 7.11574L16.7274 5.84873C17.1228 5.45955 17.522 5.0714 17.8966 4.66222L16.5143 3.28111ZM8.42691 6.63474C8.10988 6.66965 7.78831 6.6797 7.47378 6.73372C8.87337 8.08453 10.3296 9.49889 11.6865 10.8947C11.9217 10.6583 12.1655 10.4255 12.3914 10.1804L14.0521 8.51842C12.5276 7.25725 10.3892 6.57614 8.42691 6.63474ZM15.4523 9.89302C15.1778 10.1315 14.9255 10.4001 14.6687 10.6575L13.6071 11.7133C13.4246 11.8954 13.248 12.0951 13.0536 12.2641L16.2106 15.4083C16.5825 15.7829 16.9794 16.1436 17.3313 16.537C17.3923 16.2687 17.4054 15.9721 17.4173 15.6978C17.5011 13.7553 16.8551 11.8775 15.7379 10.3039C15.6435 10.1708 15.5223 10.0401 15.4523 9.89302Z" fill="black"/>
</svg>
