<svg width="24" height="24" viewBox="0 0 24 24" fill="none" xmlns="http://www.w3.org/2000/svg">
<path d="M8.67639 4.00651C8.59021 4.21364 8.47714 4.40809 8.39492 4.61831C7.62774 6.58073 8.62832 8.82348 10.6626 9.56788C12.7177 10.3199 14.9302 9.20878 15.6679 7.23585C16.1237 6.01693 15.7991 5.0879 15.2806 4.00651C15.573 3.99211 15.8727 4.00607 16.1662 4.00621L17.9565 4.00651C17.9514 4.83533 17.9962 5.61703 18.4919 6.33733C19.1149 7.24271 19.9281 7.65272 20.9999 7.85955L21 9.5403C21.0011 10.6064 20.9449 10.8237 20.6051 11.8784C20.0062 13.7374 19.044 15.4219 17.7868 16.9313C17.6493 17.0964 17.5 17.2522 17.3691 17.4224C17.3577 17.7043 17.3689 17.9909 17.369 18.2732L17.3691 20H6.63089V17.4224C6.28088 17.0123 5.92939 16.6118 5.59445 16.1884C4.52322 14.7112 3.77349 13.27 3.26234 11.5128C3.00896 10.6417 2.99944 10.458 3.00002 9.5714L3.00011 7.85955C4.44681 7.80045 5.85532 6.38795 6.01275 4.99862C6.05 4.67031 6.03746 4.3363 6.03708 4.00651H8.67639Z" fill="black"/>
</svg>
