<svg width="24" height="24" viewBox="0 0 24 24" fill="none" xmlns="http://www.w3.org/2000/svg">
<path fill-rule="evenodd" clip-rule="evenodd" d="M14.8158 4C16.2407 4.24108 17.6279 4.66787 18.9419 5.26946C21.2055 8.5792 22.3303 12.3121 21.915 16.6191C20.3855 17.75 18.6725 18.6089 16.8513 19.1581C16.4412 18.6078 16.0786 18.0236 15.7675 17.412C16.3602 17.1904 16.9324 16.9172 17.4774 16.5955C17.3358 16.4996 17.1958 16.3926 17.0589 16.2809C15.4763 17.0252 13.7489 17.4111 12 17.4111C10.251 17.4111 8.52364 17.0252 6.94098 16.2809C6.8057 16.3847 6.6657 16.4917 6.52255 16.5955C7.06646 16.9167 7.63759 17.1894 8.22933 17.4104C7.91778 18.0224 7.55522 18.607 7.14548 19.1581C5.32582 18.6067 3.61417 17.7474 2.08493 16.6176C1.73099 12.9036 2.43887 9.13606 5.05016 5.27261C6.3655 4.67092 7.75361 4.24312 9.17946 4C9.37437 4.34861 9.55079 4.70725 9.70801 5.0744C11.2258 4.84568 12.7694 4.84568 14.2872 5.0744C14.4443 4.70721 14.6208 4.34857 14.8158 4ZM6.87649 12.3372C6.87649 13.4384 7.69134 14.3335 8.67765 14.3335C9.68284 14.3335 10.4599 13.4384 10.4772 12.3372C10.4945 11.2361 9.68598 10.3332 8.6745 10.3332C7.66302 10.3332 6.87649 11.2361 6.87649 12.3372ZM13.5227 12.3372C13.5227 13.4384 14.3344 14.3335 15.3223 14.3335C16.3275 14.3335 17.103 13.4384 17.1203 12.3372C17.1376 11.2361 16.3353 10.3332 15.3223 10.3332C14.3092 10.3332 13.5227 11.2361 13.5227 12.3372Z" fill="white"/>
</svg>
