<svg width="24" height="24" viewBox="0 0 24 24" fill="none" xmlns="http://www.w3.org/2000/svg">
<path d="M11.1849 14.1293C11.1487 14.2678 11.1713 14.4384 11.1727 14.5815L11.1707 21.4945C11.1691 21.6614 11.1566 21.8339 11.1717 22C11.013 21.7622 10.8208 21.5487 10.6421 21.3251L9.39869 19.7968C8.63355 18.8208 7.83974 17.8696 7.09717 16.8763C7.36998 16.6594 7.6768 16.4643 7.96584 16.2674L10.5077 14.5342C10.7219 14.3888 10.9376 14.228 11.1717 14.1145L11.1849 14.1293Z" fill="black"/>
<path d="M12.7624 14.1145C12.9182 14.1752 13.0705 14.3121 13.2105 14.4061L16.7748 16.8015C16.8073 16.8237 16.8355 16.8477 16.8624 16.8763C16.6443 17.2034 16.3788 17.5054 16.1342 17.8144L14.5517 19.7968C13.9582 20.5324 13.3702 21.2757 12.7624 22L12.7634 14.9707C12.7632 14.6871 12.7465 14.3974 12.7624 14.1145Z" fill="black"/>
<path d="M3.00637 7.38181C3.10795 7.43492 3.20609 7.51378 3.29966 7.57986L9.96389 12.1734C10.1833 12.3229 10.4155 12.468 10.6197 12.6365L8.78462 13.881C8.22321 14.2396 7.68107 14.6283 7.13281 15.0052C6.8254 15.2165 6.48762 15.4089 6.20609 15.6516C4.66383 13.3923 3.59369 11.543 3.14588 8.75436C3.08724 8.3891 2.97169 7.73927 3.00637 7.38181Z" fill="black"/>
<path d="M21 7.39166C20.7245 10.1672 19.5273 13.4095 17.7555 15.6516C17.4827 15.5059 17.1957 15.2831 16.9357 15.1097L15.1169 13.881C14.5002 13.4741 13.8909 13.0552 13.2828 12.6365C13.3726 12.5508 13.4826 12.4811 13.5842 12.4089C14.1705 11.9924 14.7769 11.6001 15.3684 11.1901L19.945 8.05478C20.2406 7.85044 20.6474 7.49665 20.9857 7.38181L21 7.39166Z" fill="black"/>
<path d="M11.1717 11.1467C11.066 11.0876 10.9549 10.9829 10.8509 10.9122L5.91586 7.56902C5.81208 7.49921 5.52521 7.35985 5.47999 7.25372H11.1717V11.1467Z" fill="black"/>
<path d="M18.4408 7.25372C18.231 7.42528 17.9142 7.62048 17.6791 7.78087L16.7513 8.42428C16.5175 8.58513 16.2805 8.74061 16.0507 8.90708C15.6626 9.16497 15.2811 9.43399 14.8969 9.69731L13.6066 10.5723C13.3256 10.764 13.0478 10.9611 12.7624 11.1467C12.7545 10.8408 12.7626 10.531 12.7624 10.2245L12.7614 8.31294C12.7618 7.96278 12.7841 7.60283 12.7624 7.25372H18.4408Z" fill="black"/>
<path d="M11.1798 2.00493V2.02365L11.187 2.01872L11.1758 2.04532L11.1829 2.04434C11.1467 2.49335 11.1709 2.95557 11.1717 3.40605V5.75012H4.14287C4.11929 5.75183 4.1208 5.75559 4.1001 5.74126C4.15023 5.62892 5.85022 4.02633 6.03195 3.8455L6.6277 3.24938C6.73172 3.14651 6.83828 3.02459 6.96071 2.94295C7.29525 2.92202 7.64292 2.94294 7.97908 2.94295H10.0525C10.4531 2.66681 10.7531 2.25365 11.1717 2L11.1798 2.00493Z" fill="black"/>
<path d="M12.7624 2C12.9357 2.03592 13.6731 2.7838 13.904 2.94295H16.952C17.1917 3.14063 17.4102 3.37584 17.6333 3.59129L18.9714 4.88797C19.1093 5.0214 19.7949 5.64489 19.8574 5.75012H12.7624C12.7734 5.42535 12.7627 5.09688 12.7624 4.7717L12.7593 2.35669C12.7576 2.24402 12.7417 2.11007 12.7624 2Z" fill="black"/>
</svg>
