<svg width="24" height="24" viewBox="0 0 24 24" fill="none" xmlns="http://www.w3.org/2000/svg">
<path d="M5.17899 14.3556C5.45199 14.4274 6.14135 14.8111 6.42852 14.9454L8.11236 15.7242C8.475 15.8897 8.84775 16.0444 9.19864 16.2327C9.19574 16.4593 9.22228 16.6871 9.22282 16.9145L9.22383 19.4049C9.23264 20.275 9.26728 21.1216 9.25003 22C9.18038 21.9232 9.10537 21.8552 9.02229 21.7923C8.88776 21.6688 8.74108 21.5537 8.60108 21.4357L4.74166 18.1656C5.17065 17.0912 5.1815 17.3936 5.18 16.2307L5.17899 14.3556Z" fill="black"/>
<path d="M18.8119 14.3586C18.7761 14.9726 18.8006 15.6421 18.7998 16.2611L18.7978 16.842C18.7963 17.3511 19.0741 17.7079 19.1898 18.239L19.1928 18.2537C18.643 18.6656 18.1247 19.104 17.6027 19.5479L15.4473 21.3681C15.2841 21.5043 15.1133 21.6383 14.9676 21.7923C14.8755 21.8545 14.8062 21.9155 14.7349 22C14.6551 21.0151 14.7507 19.7697 14.7611 18.7661L14.7832 16.9762C14.795 16.1805 14.5958 16.301 15.2709 15.9897L16.067 15.6174C16.7763 15.2849 18.1129 14.532 18.7998 14.3556L18.8119 14.3586Z" fill="black"/>
<path d="M12.7054 2C13.6156 2.14995 15.8676 3.41897 16.5356 3.9564C18.5547 5.58147 19.7809 7.88924 19.9526 10.436C20.0125 11.3237 19.9172 12.2765 20 13.132C19.9334 12.9223 19.8489 12.7195 19.7733 12.5129L19.34 11.3137C19.1314 10.7341 18.9506 10.1426 18.7354 9.56601C17.1058 10.262 15.4105 11.0856 13.8118 11.8477C13.5864 11.9378 12.6172 12.371 12.4524 12.4893C12.4524 12.6303 12.5825 13.0982 12.6248 13.2799L13.055 15.1051C13.1864 15.6545 13.2964 15.9386 13.2939 16.505L13.2929 19.4675C12.3821 19.225 11.5896 19.2443 10.6809 19.4675C10.6673 19.2765 10.6806 19.0803 10.6809 18.8886L10.6799 16.7529C10.6791 16.3107 10.6894 16.1467 10.7918 15.7232L10.9752 14.9699C11.1777 14.1344 11.387 13.2956 11.5556 12.4531C11.2336 12.3271 10.9174 12.1768 10.6044 12.0309L6.93135 10.335C6.46871 10.1201 5.69305 9.70544 5.21829 9.56601C5.16591 9.7882 5.08193 10.0071 5.00768 10.2234L4.73057 11.0414C4.49173 11.7384 4.27008 12.4459 4 13.132C4.02425 12.2481 3.97754 11.3664 4.03426 10.482C4.28901 6.51047 6.63133 3.93191 10.2557 2.38403C10.4993 2.27999 11.043 2.02682 11.2845 2L11.3007 2.0147C11.2767 2.2092 11.2833 2.40693 11.2835 2.6025L11.2845 3.39113C10.3095 3.45717 8.82024 3.89923 8.01562 4.49424C8.13657 4.59457 8.2443 4.71611 8.35722 4.82537L9.0757 5.51702C10.651 4.61382 12.5041 4.49075 14.1927 5.17806C14.4118 5.26721 14.6645 5.37298 14.8507 5.51702C15.1781 5.14713 15.5673 4.83006 15.8937 4.458C15.1371 3.97355 13.6497 3.38558 12.7054 3.39113V2Z" fill="black"/>
<path d="M6.06676 11.5087C6.33353 11.5797 6.55433 11.706 6.80136 11.8212L9.32964 13.0066C9.52045 13.0941 9.72297 13.175 9.90503 13.278C9.82094 13.5033 9.57448 14.7446 9.50699 14.818L9.45761 14.8131C9.11599 14.6293 8.75358 14.4741 8.40257 14.3076L6.42953 13.3603C6.15069 13.2259 5.8637 13.1046 5.58912 12.9625L5.86421 12.0994C5.92629 11.9029 5.98127 11.6969 6.06676 11.5087Z" fill="black"/>
<path d="M17.8587 11.5087C17.9169 11.5505 18.3479 12.8144 18.3988 12.9625C17.1363 13.5388 15.8854 14.182 14.621 14.7397C14.5677 14.7659 14.5121 14.789 14.4577 14.8131C14.3667 14.3459 14.2483 13.728 14.1151 13.278C14.2897 13.1804 14.4786 13.0994 14.6593 13.0125L15.7083 12.5119C16.4236 12.1745 17.1323 11.8231 17.8587 11.5087Z" fill="black"/>
</svg>
