<svg width="24" height="24" viewBox="0 0 24 24" fill="none" xmlns="http://www.w3.org/2000/svg">
<path fill-rule="evenodd" clip-rule="evenodd" d="M3.53506 5.68041C3 6.73052 3 8.1052 3 10.8545V13.1455C3 15.8948 3 17.2695 3.53506 18.3196C4.00571 19.2433 4.75671 19.9943 5.68041 20.4649C6.73052 21 8.1052 21 10.8545 21H13.1455C15.8948 21 17.2695 21 18.3196 20.4649C19.2433 19.9943 19.9943 19.2433 20.4649 18.3196C21 17.2695 21 15.8948 21 13.1455V10.8545C21 8.1052 21 6.73052 20.4649 5.68041C19.9943 4.75671 19.2433 4.00571 18.3196 3.53506C17.2695 3 15.8948 3 13.1455 3H10.8545C8.1052 3 6.73052 3 5.68041 3.53506C4.75671 4.00571 4.00571 4.75671 3.53506 5.68041ZM15.6676 18.3134H18.3347L18.3358 13.6016C18.3358 11.2884 17.8374 9.51038 15.1343 9.51038C14.6271 9.49156 14.1243 9.61066 13.6794 9.85499C13.2346 10.0993 12.8643 10.4597 12.6081 10.8979H12.5722V9.72406H10.0119V18.3131H12.6789V14.0642C12.6789 12.9437 12.8914 11.8585 14.2805 11.8585C15.6499 11.8585 15.6676 13.1407 15.6676 14.1367V18.3134ZM5.45455 7.00255C5.45469 7.85733 6.14776 8.55019 7.00254 8.55005C7.41303 8.54996 7.80667 8.38681 8.09687 8.09649C8.38707 7.80617 8.55006 7.41247 8.54998 7.00198C8.54984 6.14719 7.85677 5.45433 7.00198 5.45455C6.14719 5.45469 5.4544 6.14776 5.45455 7.00255ZM5.66626 18.3135H8.33609L8.33602 9.72406H5.66626V18.3135Z" fill="white"/>
</svg>
