<svg width="24" height="24" viewBox="0 0 24 24" fill="none" xmlns="http://www.w3.org/2000/svg">
<path d="M12 2C6.47727 2 2 6.47727 2 12C2 17.5227 6.47727 22 12 22C17.5227 22 22 17.5227 22 12C22 6.47727 17.5227 2 12 2ZM12.6951 5.99414C12.7348 5.98694 12.7761 5.98749 12.8176 5.9968L15.2688 6.48597C15.4252 6.21279 15.7089 6.02908 16.0243 5.9968C16.5739 5.93726 17.0656 6.33461 17.1252 6.8837C17.1847 7.43325 16.7874 7.9259 16.2383 7.98544C15.6887 8.04499 15.1961 7.64809 15.1365 7.09854L12.997 6.64844L12.348 9.76811C13.7226 9.79811 15.0597 10.2231 16.1983 10.9986C16.4565 10.7527 16.7976 10.6051 17.1554 10.5929C17.9631 10.5656 18.639 11.1945 18.669 12C18.679 12.5618 18.3634 13.0785 17.8612 13.3299C17.8712 13.4763 17.8712 13.6234 17.8612 13.7702C17.8612 16.0125 15.2511 17.8319 12.032 17.8319C8.81287 17.8319 6.20277 16.0098 6.20277 13.7702C6.19277 13.6234 6.19277 13.4767 6.20277 13.3299C6.05595 13.2654 5.92446 13.173 5.81037 13.0662C5.22128 12.5144 5.19374 11.5898 5.74556 11.003C6.29738 10.4139 7.22195 10.3864 7.80877 10.9382C8.96195 10.1578 10.317 9.73001 11.7088 9.70774L12.4474 6.23828V6.23295C12.4754 6.10614 12.5763 6.01575 12.6951 5.99414ZM9.66957 12C9.11684 12 8.66903 12.4478 8.66903 13.0005C8.66903 13.5533 9.11729 14.0011 9.66957 14.0011C10.2223 14.0011 10.6701 13.5528 10.6701 13.0005C10.6701 12.4478 10.2218 12 9.66957 12ZM14.3011 12C13.7489 12 13.3011 12.4478 13.3006 13.0005C13.3006 13.5533 13.7489 14.0011 14.3011 14.0011C14.8539 14.0011 15.3017 13.5528 15.3017 13.0005C15.3017 12.4478 14.8534 12 14.3011 12ZM9.74503 15.3088C9.6844 15.3088 9.62346 15.3291 9.57369 15.37C9.45914 15.4646 9.44185 15.6363 9.5364 15.7509C10.2473 16.2854 11.118 16.5588 12.008 16.5215C12.898 16.5588 13.7678 16.2854 14.4787 15.7509V15.7908C14.5882 15.6836 14.5908 15.5053 14.484 15.3958C14.3772 15.2862 14.1976 15.2836 14.0881 15.3904C13.479 15.8254 12.7428 16.039 11.9973 15.9995C11.2519 16.034 10.5186 15.81 9.91726 15.37C9.86635 15.3291 9.80565 15.3088 9.74503 15.3088Z" fill="black"/>
</svg>
