<svg width="24" height="24" viewBox="0 0 24 24" fill="none" xmlns="http://www.w3.org/2000/svg">
<path d="M5 6.79849V2.0069C5.78577 2.01767 6.57294 1.99181 7.35847 2.0069L7.35871 3.36163C7.3589 3.58779 7.37051 3.81828 7.35847 4.04396C8.02989 4.05355 8.70316 4.02753 9.37425 4.04396V2.0069C9.59417 2.01495 9.81685 2.00728 10.0372 2.00705L11.4467 2.0069V4.04396C11.6709 4.05947 11.9047 4.04455 12.1301 4.04443L13.5374 4.04396V2.0069C14.2066 2.00708 14.8794 1.99129 15.548 2.0069C15.5478 2.68486 15.5633 3.36647 15.548 4.04396C15.7739 4.06212 16.0081 4.04466 16.2351 4.04436L17.6278 4.04396V2.0069C18.3614 2.01734 19.2735 2.04886 20 2.0069C19.9861 2.24904 19.9964 2.49 19.999 2.73223L20 6.79849H18.8267L18.8262 10.6121C18.8257 11.214 18.8924 11.6352 18.9652 12.2315L19.2722 14.6003C19.3181 14.9431 19.3739 15.2845 19.4152 15.6279C19.4928 16.1015 19.6173 16.809 19.6387 17.2752C18.8053 17.7481 18.0184 18.3225 17.2267 18.8575L13.7889 21.1476C13.3598 21.4306 12.9418 21.7404 12.4978 22C12.1274 21.8023 11.7887 21.5356 11.4392 21.3051L6.53137 18.0618C6.13832 17.8019 5.72296 17.5562 5.34631 17.2752L6.02829 11.9141C6.0849 11.4251 6.12603 11.0157 6.12574 10.5238L6.1255 6.79849C5.75727 6.81653 5.36833 6.81055 5 6.79849ZM8.63914 6.79849L8.63876 8.39679C8.63866 8.65951 8.62739 8.92742 8.63914 9.18962H10.5401V11.0618C9.90816 11.0665 9.27075 11.0754 8.63914 11.0618L8.63484 12.6743C8.63421 12.8022 8.64156 12.93 8.63914 13.0578C8.86797 13.0512 9.09796 13.0575 9.32693 13.0576L10.5401 13.0578V14.8987L9.04004 14.8982C8.79665 14.8978 8.54735 14.8808 8.30488 14.8987C8.13838 15.1994 8.05181 15.5676 7.92228 15.8873L11.9875 18.5949C12.1534 18.704 12.3188 18.826 12.4978 18.9139C12.8502 18.6719 13.2163 18.4488 13.573 18.2128L14.4394 17.6447C14.5769 17.5552 14.7117 17.4595 14.8524 17.3752L17.0959 15.8873C16.9676 15.5614 16.8016 15.232 16.6995 14.8987H14.4417C14.4303 14.2855 14.4472 13.6712 14.4417 13.0578C15.0712 13.0728 15.7047 13.0578 16.3347 13.0578L16.3341 11.7063C16.3339 11.4947 16.3177 11.272 16.3347 11.0618L15.0354 11.0611C14.8424 11.0606 14.6321 11.039 14.4417 11.0618L14.441 9.79161C14.4405 9.59191 14.4327 9.38905 14.4417 9.18962H16.3347L16.3345 7.59274C16.3343 7.32964 16.3212 7.06098 16.3347 6.79849H8.63914Z" fill="black"/>
</svg>
