<svg width="80" height="80" viewBox="0 0 80 80" fill="none" xmlns="http://www.w3.org/2000/svg">
<path fill-rule="evenodd" clip-rule="evenodd" d="M40.0008 2C47.7768 2 54.335 7.21617 56.372 14.3425L56.5421 14.924C58.2895 20.7858 59.8496 22.0675 66.1436 23.2601C66.2313 23.2766 66.3181 23.2934 66.4053 23.3112C74.1638 24.8999 79.9999 31.7688 80 40.0018C80 42.945 79.2536 45.7136 77.9408 48.1292C75.4115 52.7881 70.7786 56.1419 65.3244 56.904C59.5308 58.096 58.1201 59.5691 56.3818 65.6236C54.3559 72.7672 47.7891 78 40.0008 78C32.2248 77.9999 25.6666 72.7835 23.6296 65.6571C21.8866 59.5729 20.4804 58.0984 14.6748 56.904C9.22092 56.1417 4.58794 52.788 2.05877 48.1292C0.746029 45.7137 0 42.9449 0 40.0018C7.33481e-05 31.6763 5.9684 24.7465 13.8572 23.2605C20.3541 22.0294 21.8066 20.7031 23.628 14.3425C25.6646 7.21554 32.2244 2.00007 40.0008 2Z" fill="black"/>
</svg>
