<svg width="80" height="80" viewBox="0 0 80 80" fill="none" xmlns="http://www.w3.org/2000/svg">
<path d="M45.6862 5.88736C53.5362 -1.96214 66.2632 -1.96145 74.1129 5.88834C81.9626 13.7383 81.9628 26.4652 74.1129 34.3151L68.4274 40.0006L74.1129 45.6862C81.9627 53.5361 81.9628 66.2631 74.1129 74.1129C66.2631 81.9628 53.5361 81.9627 45.6862 74.1129L40.0006 68.4274L34.3151 74.1129C26.4652 81.9629 13.7373 81.9629 5.88736 74.1129C-1.96219 66.2631 -1.96207 53.5361 5.88736 45.6862L11.5729 40.0006L5.88736 34.3151C-1.96239 26.4651 -1.96251 13.7372 5.88736 5.88736C13.7372 -1.96251 26.4651 -1.96239 34.3151 5.88736L40.0006 11.5729L45.6862 5.88736Z" fill="black"/>
</svg>
