<svg width="80" height="80" viewBox="0 0 80 80" fill="none" xmlns="http://www.w3.org/2000/svg">
<path d="M73.5996 1.6328e-09C75.8398 1.6328e-09 76.9608 -0.000427067 77.8164 0.435547C78.5689 0.819016 79.181 1.43109 79.5645 2.18359C80.0004 3.03924 80 4.16018 80 6.40039V73.5996C80 75.8398 80.0004 76.9608 79.5645 77.8164C79.181 78.5689 78.5689 79.181 77.8164 79.5645C76.9608 80.0004 75.8398 80 73.5996 80H6.40039C4.16018 80 3.03924 80.0004 2.18359 79.5645C1.43109 79.181 0.819016 78.5689 0.435547 77.8164C-0.000427067 76.9608 1.63391e-09 75.8398 1.63391e-09 73.5996V6.40039C1.63391e-09 4.16018 -0.000427067 3.03924 0.435547 2.18359C0.819016 1.43109 1.43109 0.819016 2.18359 0.435547C3.03924 -0.000427067 4.16018 1.6328e-09 6.40039 1.6328e-09H73.5996Z" fill="black"/>
</svg>
