<svg width="590" height="590" viewBox="0 0 590 590" fill="none" xmlns="http://www.w3.org/2000/svg">
<g clip-path="url(#clip0_34_3)">
<mask id="mask0_34_3" style="mask-type:alpha" maskUnits="userSpaceOnUse" x="0" y="0" width="590" height="590">
<path d="M0 269.714C0 175.305 0 128.101 18.3732 92.0415C34.5347 60.3229 60.3229 34.5347 92.0415 18.3732C128.101 0 175.305 0 269.714 0H320.286C414.695 0 461.899 0 497.959 18.3732C529.677 34.5347 555.465 60.3229 571.627 92.0415C590 128.101 590 175.305 590 269.714V320.286C590 414.695 590 461.899 571.627 497.959C555.465 529.677 529.677 555.465 497.959 571.627C461.899 590 414.695 590 320.286 590H269.714C175.305 590 128.101 590 92.0415 571.627C60.3229 555.465 34.5347 529.677 18.3732 497.959C0 461.899 0 414.695 0 320.286V269.714Z" fill="#1C1B20"/>
</mask>
<g mask="url(#mask0_34_3)">
<path d="M590 0H0V590H590V0Z" fill="#6B2EFA"/>
<path d="M294.552 159.792L429.311 248.732L294.552 429.309L159.794 248.732L294.552 159.792Z" fill="white"/>
<path d="M294.552 293.587L429.311 249.248L294.552 429.29L159.794 249.248L294.552 293.587Z" fill="#D2CEFD"/>
<path d="M295.094 159.792L429.307 248.732L295.094 429.309V159.792Z" fill="#E7E6FE"/>
<path d="M295.094 293.587L429.307 249.248L295.094 429.29V293.587Z" fill="#AA9CFC"/>
</g>
</g>
<defs>
<clipPath id="clip0_34_3">
<rect width="590" height="590" fill="white"/>
</clipPath>
</defs>
</svg>
